<svg xmlns="http://www.w3.org/2000/svg" xmlns:xlink="http://www.w3.org/1999/xlink">
  <defs>
    <path id="reuse-2" fill-opacity=".56" d="M0 0h77v49H0z"/>
    <path id="reuse-1" d="M1.516-8.047a.82.82 0 01.562.297c.156.18.223.383.203.61-.117 1.355-.234 3.761-.36 7.218a.806.806 0 01-.28.578.845.845 0 01-.594.235.847.847 0 01-.594-.282.784.784 0 01-.219-.593c.125-3.364.25-5.79.375-7.282a.739.739 0 01.297-.578.811.811 0 01.61-.203zm0 0"/>
    <path id="reuse-0" d="M2.766-1.031c.789-.032 1.254-.711 1.39-2.047l.235-2.516a.79.79 0 01.296-.562.73.73 0 01.61-.188.83.83 0 01.578.297c.156.18.223.383.203.61l-.25 2.53c-.023.212-.055.419-.094.626a3.78 3.78 0 01-.171.672c-.086.23-.18.449-.282.656-.093.21-.226.414-.39.61a2.71 2.71 0 01-.532.484A2.494 2.494 0 013.688.5a2.847 2.847 0 01-.86.156 2.994 2.994 0 01-1-.14 2.532 2.532 0 01-.812-.438 3.111 3.111 0 01-.579-.656 4.022 4.022 0 01-.374-.813 3.56 3.56 0 01-.141-.859 5.017 5.017 0 01.094-1.063A4.12 4.12 0 01.39-4.39c.187-.351.406-.671.656-.953A3.25 3.25 0 012-6.047c.375-.187.785-.289 1.234-.312.563-.02 1.07.109 1.532.39.207.137.336.32.39.547a.74.74 0 01-.093.625.883.883 0 01-.547.39.762.762 0 01-.625-.109.987.987 0 00-.579-.156c-.312.012-.605.137-.874.375-.274.23-.481.527-.626.89a2.66 2.66 0 00-.203 1.095c.02.43.13.75.329.968.195.219.472.324.828.313zm2.53-5.328a.88.88 0 01.579.312c.156.18.223.383.203.61L5.797-2.61a5.19 5.19 0 00-.031.796c.007.188.023.32.046.391.02.074.067.11.141.11.207-.008.399.07.578.234a.749.749 0 01.266.578.788.788 0 01-.219.594.819.819 0 01-.594.281A1.631 1.631 0 015.281.25a1.75 1.75 0 01-.531-.328 2.366 2.366 0 01-.36-.5 2.46 2.46 0 01-.234-.563 3.159 3.159 0 01-.078-.593c-.012-.332 0-.676.031-1.032l.282-2.828a.79.79 0 01.296-.562.782.782 0 01.61-.203zm0 0"/>
  </defs>
  <defs>
    <symbol id="c" overflow="visible">
      <path d="M-.656-7.578a.853.853 0 01.61-.219c.226 0 .421.086.577.25L2.656-5.28l1.516-3.016a.761.761 0 01.469-.422.869.869 0 01.656.047.82.82 0 01.422.485.874.874 0 01-.047.656L3.64-3.438a.533.533 0 01-.141.188.88.88 0 01-.64.281.766.766 0 01-.61-.265L-.703-6.375a.84.84 0 01-.219-.61.85.85 0 01.266-.593zM3.516.375a.873.873 0 01-.641-.156.778.778 0 01-.328-.547l-.5-3.375a.88.88 0 01.14-.625.83.83 0 01.547-.344.812.812 0 01.625.172c.188.137.301.32.344.547l.516 3.36a.848.848 0 01-.157.624.78.78 0 01-.546.344zm0 0"/>
    </symbol>
    <symbol id="d" overflow="visible">
      <use xlink:href="#reuse-0"/>
    </symbol>
    <symbol id="e" overflow="visible">
      <use xlink:href="#reuse-1"/>
    </symbol>
    <symbol id="f" overflow="visible">
      <path d="M1.828-7.984c.227.023.41.125.547.312a.874.874 0 01.188.625C2.394-5.703 2.18-3.305 1.921.141a.871.871 0 01-.297.578.791.791 0 01-.61.203.775.775 0 01-.577-.297.777.777 0 01-.204-.61c.25-3.35.461-5.769.641-7.25a.851.851 0 01.328-.577.808.808 0 01.625-.172zm0 0"/>
    </symbol>
    <symbol id="g" overflow="visible">
      <path d="M2.906-.5c.781.117 1.36-.469 1.735-1.75l.718-2.422a.82.82 0 01.391-.5.71.71 0 01.625-.078c.227.063.398.2.516.406.125.2.156.414.093.64l-.718 2.438c-.063.2-.137.399-.22.594-.073.2-.171.406-.296.625a3.631 3.631 0 01-.39.594 3.943 3.943 0 01-.485.515 2.31 2.31 0 01-.61.391 2.78 2.78 0 01-.734.219c-.273.039-.562.035-.875-.016a2.971 2.971 0 01-.969-.312A2.446 2.446 0 01.985.266a3.195 3.195 0 01-.437-.75 3.058 3.058 0 01-.219-.86c-.031-.3-.027-.593.016-.875.05-.344.144-.68.281-1.015a4.73 4.73 0 01.578-1c.238-.32.508-.594.813-.813a3.445 3.445 0 011.062-.516A2.816 2.816 0 014.36-5.64c.551.086 1.032.309 1.438.672a.896.896 0 01.266.594.766.766 0 01-.22.61.882.882 0 01-.593.28.745.745 0 01-.594-.234 1.079 1.079 0 00-.531-.25c-.313-.05-.625.016-.938.203a2.396 2.396 0 00-.78.766c-.212.324-.34.668-.391 1.031-.063.418-.024.758.125 1.016.156.25.41.402.765.453zm3.485-4.766a.885.885 0 01.5.422c.125.2.156.414.093.64l-.812 2.72c-.086.28-.14.543-.172.78-.031.188-.043.321-.031.391.008.075.05.118.125.126.207.03.379.14.515.328a.848.848 0 01.157.625.786.786 0 01-.329.546.836.836 0 01-.64.172 1.679 1.679 0 01-.656-.25 1.52 1.52 0 01-.454-.421 2.23 2.23 0 01-.28-.563 2.458 2.458 0 01-.11-.594c-.012-.195 0-.398.031-.61.05-.331.125-.66.219-.984l.812-2.734a.82.82 0 01.391-.5.769.769 0 01.64-.094zm0 0"/>
    </symbol>
    <symbol id="v" overflow="visible">
      <path d="M-.656-7.578a.853.853 0 01.61-.219c.218 0 .41.086.577.25L2.656-5.28l1.516-3.016a.761.761 0 01.469-.422.825.825 0 01.64.047.82.82 0 01.422.485.819.819 0 01-.031.656L3.64-3.438a.533.533 0 01-.141.188.88.88 0 01-.64.281.766.766 0 01-.61-.265L-.703-6.375a.84.84 0 01-.219-.61.85.85 0 01.266-.593zM3.516.375a.873.873 0 01-.641-.156.778.778 0 01-.328-.547l-.5-3.375a.88.88 0 01.14-.625.83.83 0 01.547-.344.812.812 0 01.625.172c.188.137.301.32.344.547l.516 3.36a.848.848 0 01-.157.624.78.78 0 01-.546.344zm0 0"/>
    </symbol>
    <symbol id="w" overflow="visible">
      <use xlink:href="#reuse-0"/>
    </symbol>
    <symbol id="x" overflow="visible">
      <use xlink:href="#reuse-1"/>
    </symbol>
    <symbol id="i" overflow="visible">
      <path d="M.672 1.484a.234.234 0 01-.047-.14c0-.055.02-.094.063-.125a.736.736 0 01.484-.203A.439.439 0 011.297 1c.05.008.098.023.14.047a.43.43 0 01.11.078c.031.04.047.094.047.156.008.051 0 .098-.032.14-.03.052-.074.079-.125.079a.197.197 0 01-.125-.016.156.156 0 01-.062-.093c0-.012-.016-.012-.047 0a.574.574 0 00-.281.093c-.031.04-.078.055-.14.047-.055 0-.09-.015-.11-.047zm1.562-1.75a.281.281 0 01-.062.172.196.196 0 01-.14.078h-.079c.02.051.035.11.047.172a.468.468 0 01-.063.281.513.513 0 01-.187.22.961.961 0 01-.281.155c-.106.04-.219.067-.344.079C.957.898.805.89.672.859A.78.78 0 01.344.688.845.845 0 01.14.421.733.733 0 01.047.094C.023-.125.055-.391.14-.703a.18.18 0 01.093-.14.208.208 0 01.172-.016.2.2 0 01.14.093c.032.055.04.11.032.172-.062.262-.086.477-.062.64 0 .052.004.099.015.142.008.039.024.078.047.109.02.039.05.07.094.094.05.02.11.03.172.03.062.009.14.009.234 0a1.42 1.42 0 00.219-.046.262.262 0 00.14-.063.233.233 0 00.079-.062c.02-.012.03-.023.03-.031l.016-.016-.015-.016c0-.011-.012-.027-.031-.046a.132.132 0 00-.063-.032.64.64 0 00-.14-.03 1.87 1.87 0 00-.188-.032A.201.201 0 01.969 0a.142.142 0 01-.063-.125C.883-.188.895-.242.937-.297a.236.236 0 01.172-.11l.875-.077a.165.165 0 01.157.062c.05.043.082.094.093.156zm0 0"/>
    </symbol>
    <symbol id="j" overflow="visible">
      <path d="M-.188-1.25a.165.165 0 01-.046-.125.21.21 0 01.062-.14.816.816 0 01.484-.188c.04 0 .083.008.126.016.05 0 .097.011.14.03.05.024.086.055.11.095a.256.256 0 01.046.156.157.157 0 01-.046.14.147.147 0 01-.125.063c-.043.012-.079.008-.11-.016a.136.136 0 01-.062-.093c0-.008-.016-.016-.047-.016a.667.667 0 00-.281.094c-.043.043-.086.058-.141.046a.162.162 0 01-.11-.062zM-.233-.047c-.008-.062.011-.117.062-.172a.198.198 0 01.156-.078h.11a.273.273 0 01.078-.031h.062A.14.14 0 00.281-.36C.29-.367.297-.38.297-.391a.164.164 0 00.016-.062.213.213 0 00.015-.078c0-.031-.008-.063-.016-.094 0-.04-.007-.094-.015-.156a.203.203 0 01.047-.172.192.192 0 01.172-.094A.185.185 0 01.672-1c.039.043.07.094.094.156 0 .031.004.074.015.125.008.086.016.14.016.172.008.024.02.047.031.078.02.031.035.055.047.063.008.011.031.023.063.031a.263.263 0 00.093.016.792.792 0 00.14-.016c.063 0 .114.023.157.063.05.042.078.093.078.156a.228.228 0 01-.047.172.198.198 0 01-.156.078A1.393 1.393 0 01.86.078a.58.58 0 01-.265-.125.674.674 0 01-.25.156C.25.141.14.16.016.172A.29.29 0 01-.156.109a.198.198 0 01-.078-.156zm0 0"/>
    </symbol>
    <symbol id="k" overflow="visible">
      <path d="M.39-2.578a.086.086 0 01.063 0c.02.012.04.027.063.047.05.105.082.203.093.297a.257.257 0 01-.078.187.209.209 0 01-.156.063C.301-1.973.238-2 .187-2.063a.247.247 0 01-.187.11.194.194 0 01-.14-.063.207.207 0 01-.079-.171.408.408 0 01.094-.282.11.11 0 01.063-.015c.023-.008.039-.004.046.015.02.012.032.028.032.047.007.012.004.031-.016.063a.143.143 0 00-.031.093c-.008.032-.016.059-.016.079 0 .042.016.062.047.062a.162.162 0 00.078-.047c.02-.031.024-.078.016-.14 0-.02.004-.036.015-.047.02-.02.04-.032.063-.032.02-.007.035-.004.047.016.02.012.035.031.047.063.007.062.023.105.046.124.02.024.04.032.063.032.04 0 .063-.024.063-.078a1.319 1.319 0 00-.063-.235.115.115 0 01-.016-.062c0-.02.008-.035.032-.047zm0 0"/>
    </symbol>
    <symbol id="l" overflow="visible">
      <path d="M-.313.781a.181.181 0 01-.03-.14c0-.055.015-.094.046-.125a.84.84 0 01.5-.188c.04 0 .082.004.125.016.05.008.098.02.14.031.04.02.079.05.11.094.031.039.047.094.047.156 0 .05-.016.098-.047.14C.547.817.504.845.453.845A.282.282 0 01.328.813.156.156 0 01.266.719C.266.707.25.703.219.703a.574.574 0 00-.281.094c-.032.031-.07.039-.126.031-.062 0-.101-.015-.124-.047zm.61-2a.438.438 0 01.187.016c.063.023.098.062.11.125.082.21.125.387.125.531.008.211-.04.371-.14.485C.46.081.272.16.015.172A.29.29 0 01-.156.109a.198.198 0 01-.078-.156.29.29 0 01.062-.172.198.198 0 01.156-.078c.125-.008.207-.035.25-.078.02-.02.024-.07.016-.156 0-.094-.031-.223-.094-.39a.285.285 0 01.016-.173.244.244 0 01.125-.125zm0 0"/>
    </symbol>
    <symbol id="m" overflow="visible">
      <path d="M.406-1.297a.192.192 0 01.156-.078.29.29 0 01.172.063c.051.03.094.07.125.109.04.031.086.086.141.156.063.063.113.125.156.188.04.062.07.136.094.218a.724.724 0 01.047.25.512.512 0 01-.047.266.483.483 0 01-.172.172C1.004.086.926.117.844.14a.76.76 0 01-.266.047C.43.188.29.171.156.14A.244.244 0 01.031.016a.202.202 0 01-.015-.172.186.186 0 01.109-.125c.05-.031.11-.04.172-.031a.962.962 0 00.281.046c.188-.007.274-.062.266-.156 0-.07-.043-.156-.125-.25a1.422 1.422 0 00-.297-.297.25.25 0 01-.078-.156c0-.07.02-.129.062-.172zm0 0"/>
    </symbol>
    <symbol id="n" overflow="visible">
      <path d="M.672-1.188c.094 0 .176.024.25.063.07.031.129.086.172.156a.74.74 0 01.125.235c.031.086.05.171.062.265.008.086.016.172.016.266 0 .289-.086.523-.25.703C.89.688.66.816.359.89A.259.259 0 01.08.735.227.227 0 01.093.547.295.295 0 01.25.437C.457.396.61.32.703.22a.605.605 0 00.14-.422 1.74 1.74 0 00-.015-.219 2.135 2.135 0 00-.031-.156.263.263 0 00-.047-.094L.719-.719C.707-.727.695-.734.688-.734c-.024 0-.04.007-.047.015-.012 0-.028.008-.047.016a.14.14 0 00-.031.047c0 .023-.008.047-.016.078v.125c0 .062.004.105.015.125.02.023.063.031.125.031h.672c.063 0 .114.027.157.078.05.043.078.094.078.157a.198.198 0 01-.078.156.198.198 0 01-.157.078H.688C.487.172.336.117.233.016.13-.086.078-.234.078-.422c0-.07.004-.14.016-.203a.614.614 0 01.062-.203.876.876 0 01.11-.188c.05-.05.109-.093.171-.125a.57.57 0 01.235-.046zm0 0"/>
    </symbol>
    <symbol id="o" overflow="visible">
      <path d="M.797-1.266c.05 0 .11.012.172.032a.706.706 0 01.344.171c.05.043.093.102.125.172a.5.5 0 01-.031.484.972.972 0 01-.157.204.848.848 0 01-.234.14 1.994 1.994 0 01-.266.11C.656.078.562.097.469.109.375.13.285.145.203.156.13.164.063.172 0 .172A.198.198 0 01-.156.094a.198.198 0 01-.078-.157c0-.062.027-.113.078-.156A.198.198 0 010-.297c.113 0 .234-.008.36-.031.124-.031.234-.067.328-.11.093-.05.171-.097.234-.14.062-.05.094-.094.094-.125S.992-.753.953-.766a.268.268 0 00-.14-.03.62.62 0 00-.25.046c.125.137.269.25.437.344.164.094.336.14.516.14h.015c.063 0 .114.028.157.079a.225.225 0 010 .312.198.198 0 01-.157.078h-.015c-.137 0-.278-.027-.422-.078a2.467 2.467 0 01-.36-.14 2.265 2.265 0 01-.312-.22 2.204 2.204 0 01-.234-.234C.133-.539.082-.613.03-.688a.157.157 0 01-.047-.14c0-.063.02-.113.063-.156a1.177 1.177 0 01.75-.282zm0 0"/>
    </symbol>
    <symbol id="p" overflow="visible">
      <path d="M1.922-1.031c.05-.008.101 0 .156.031a.199.199 0 01.125.125c.063.2.086.387.078.563 0 .054-.008.109-.015.171A.28.28 0 012.187 0a.967.967 0 01-.109.14.278.278 0 01-.156.11.87.87 0 01-.219.031A.86.86 0 011.47.22a.525.525 0 01-.172-.14.985.985 0 01-.11-.173c-.023-.07-.039-.14-.046-.203A1.249 1.249 0 011.125-.5c0-.063.008-.125.031-.188a.18.18 0 01.094-.14c.05-.04.11-.05.172-.031a.2.2 0 01.14.093.15.15 0 01.032.157v.281c0 .043.004.074.015.094.02.011.036.027.047.047.02.011.035.015.047.015.04 0 .067-.008.078-.031a.268.268 0 00.032-.14.746.746 0 000-.188 1.047 1.047 0 00-.047-.203c-.024-.051-.016-.11.015-.172a.246.246 0 01.14-.125zm-.516.172c.063 0 .114.027.157.078.039.054.054.11.046.172-.011.043-.023.09-.03.14a.364.364 0 01-.048.156.995.995 0 01-.078.172A.443.443 0 011.36 0a.382.382 0 01-.125.125.334.334 0 01-.171.078.87.87 0 01-.22.031A.572.572 0 01.61.156a.386.386 0 01-.156-.14.69.69 0 01-.125-.406C.336-.485.352-.595.375-.72a.234.234 0 01.11-.14c.05-.04.109-.055.171-.047a.19.19 0 01.14.11c.04.054.052.109.032.171-.012.117-.023.203-.031.266 0 .093.039.14.125.14A.1.1 0 001-.25c.031-.02.055-.063.078-.125a1 1 0 00.063-.297.373.373 0 01.093-.156c.051-.04.11-.05.172-.031zM.641-.906a.262.262 0 01.156.094c.039.054.05.109.031.171a.692.692 0 01-.047.25 1.123 1.123 0 01-.125.22A.478.478 0 01.5 0a.586.586 0 01-.219.125.643.643 0 01-.297.047.198.198 0 01-.156-.078.233.233 0 01-.047-.172c0-.063.028-.113.078-.156a.225.225 0 01.157-.063c.113.012.195-.016.25-.078.062-.063.097-.176.109-.344a.18.18 0 01.094-.14.325.325 0 01.172-.047zm0 0"/>
    </symbol>
    <symbol id="r" overflow="visible">
      <path d="M1.516-1.781a.185.185 0 01.171.062c.04.043.055.094.047.157a6.2 6.2 0 01-.015.984.992.992 0 01-.266.61.588.588 0 01-.234.14c-.094.031-.188.05-.282.062a1.882 1.882 0 01-.296 0A6.617 6.617 0 01.219.172a.267.267 0 01-.14-.11.241.241 0 01-.032-.171A.18.18 0 01.14-.25C.19-.29.25-.3.313-.281c.164.023.289.039.374.047.07.011.13.015.172.015H1a.374.374 0 00.11-.031.297.297 0 00.124-.188l.032-.187c.03-.29.039-.602.03-.938a.164.164 0 01.048-.156c.05-.039.11-.062.172-.062zM.609-.36a.315.315 0 01-.14-.125.227.227 0 01-.016-.188c.008-.05.02-.117.031-.203a1.597 1.597 0 00-.078-.64.285.285 0 01.016-.173.262.262 0 01.125-.109.243.243 0 01.187.016c.063.023.098.062.11.125.101.273.14.547.11.828a1.429 1.429 0 01-.063.297.267.267 0 01-.11.14.241.241 0 01-.172.032zm.907-.485a.2.2 0 01.14.094.29.29 0 01.063.172 1.591 1.591 0 00-.016.219v.125a.146.146 0 00.047.078c.02.011.04.023.063.031.019.012.046.016.078.016a.262.262 0 01.156.093c.039.051.055.11.047.172a.198.198 0 01-.078.157.233.233 0 01-.172.046.696.696 0 01-.25-.078.81.81 0 01-.172-.156.764.764 0 01-.11-.203.939.939 0 01-.062-.25c0-.094.004-.192.016-.297 0-.063.023-.113.078-.156.05-.04.11-.063.172-.063zm0 0"/>
    </symbol>
    <symbol id="s" overflow="visible">
      <path d="M-.438.719a.243.243 0 01-.015-.14c.012-.056.039-.09.078-.11a.787.787 0 01.516-.11C.18.367.223.38.266.391c.05.02.097.039.14.062.04.031.07.067.094.11.02.05.023.109.016.171A.222.222 0 01.437.86a.165.165 0 01-.14.047.148.148 0 01-.11-.047.178.178 0 01-.046-.093C.14.754.125.742.094.734a.49.49 0 00-.281.047c-.051.031-.098.035-.141.016a.165.165 0 01-.11-.078zM.5-1.141c.063 0 .117.016.172.047.062.032.094.074.094.125.05.219.066.403.046.547C.79-.21.712-.055.579.047.441.16.242.203-.016.172A.262.262 0 01-.172.078a.233.233 0 01-.047-.172c0-.062.028-.113.078-.156a.233.233 0 01.172-.047c.125.012.211 0 .266-.031.02-.02.035-.07.047-.156.008-.094 0-.223-.031-.391 0-.07.015-.129.046-.172A.2.2 0 01.5-1.14zm0 0"/>
    </symbol>
    <clipPath id="b">
      <path d="M0 0h66v45H0z"/>
    </clipPath>
    <clipPath id="h">
      <path d="M0 0h59v41H0z"/>
    </clipPath>
    <mask id="u">
      <g filter="url(#a)">
        <use fill-opacity=".56" xlink:href="#reuse-2"/>
      </g>
    </mask>
    <mask id="z">
      <g filter="url(#a)">
        <use fill-opacity=".57" xlink:href="#reuse-2"/>
      </g>
    </mask>
    <g id="t" fill="#bbbab8" clip-path="url(#b)">
      <use x="23.275" y="22.372" xlink:href="#c"/>
      <use x="28.48" y="21.589" xlink:href="#d"/>
      <use x="35.143" y="21.409" xlink:href="#e"/>
      <use x="37.324" y="21.489" xlink:href="#f"/>
      <use x="39.435" y="21.56" xlink:href="#g"/>
    </g>
    <g id="y" fill="#c5c2b4" clip-path="url(#h)">
      <use x="21.523" y="9.372" xlink:href="#i"/>
      <use x="23.509" y="9.193" xlink:href="#j"/>
      <use x="24.766" y="9.353" xlink:href="#k"/>
      <use x="24.69" y="9.117" xlink:href="#l"/>
      <use x="25.46" y="9.08" xlink:href="#m"/>
      <use x="26.751" y="9.043" xlink:href="#n"/>
      <use x="28.108" y="9.036" xlink:href="#o"/>
      <use x="29.6" y="9.06" xlink:href="#p"/>
      <use x="31.839" y="9.187" xlink:href="#q"/>
      <use x="32.615" y="9.242" xlink:href="#r"/>
      <use x="34.471" y="9.435" xlink:href="#s"/>
    </g>
    <filter id="a" width="100%" height="100%" x="0%" y="0%" filterUnits="objectBoundingBox">
      <feColorMatrix in="SourceGraphic" values="0 0 0 0 1 0 0 0 0 1 0 0 0 0 1 0 0 0 1 0"/>
    </filter>
  </defs>
  
  <use mask="url(#u)" transform="translate(0 4)" xlink:href="#t"/>
  <use x="23.184" y="26.851" fill="#fff" xlink:href="#v"/>
  <use x="28.388" y="26.067" fill="#fff" xlink:href="#w"/>
  <use x="35.052" y="25.887" fill="#fff" xlink:href="#x"/>
  <use x="37.232" y="25.968" fill="#fff" xlink:href="#f"/>
  <use x="39.343" y="26.039" fill="#fff" xlink:href="#g"/>
  <path fill="#226630" d="M31.898 28.477c.02 1.214.668 2.191 1.551 2.785.887.601 1.973.894 3.051.906 1.082.039 2.18-.2 3.156-.691.969-.5 1.832-1.27 2.246-2.399.012 1.223-.808 2.383-1.847 3.07-1.043.715-2.317 1.043-3.578 1.02-1.258-.035-2.551-.43-3.512-1.293-.98-.824-1.492-2.25-1.067-3.398"/>
  <use mask="url(#z)" transform="translate(0 8)" xlink:href="#y"/>
  <path fill="#226731" d="M41.453 28.477c.117.113.227.234.32.359.102.11.164.238.29.281.23.145.523.137.843.102a.851.851 0 01-.965.117c-.168-.098-.257-.258-.332-.402a2.52 2.52 0 01-.156-.457M30.969 28.383c.582.164 1.054-.02 1.367-.535.039.308-.18.629-.492.754-.313.113-.688.035-.875-.22"/>
  <use x="21.733" y="17.069" fill="#c9c015" xlink:href="#i"/>
  <use x="23.719" y="16.89" fill="#c9c015" xlink:href="#j"/>
  <use x="24.976" y="17.051" fill="#c9c015" xlink:href="#k"/>
  <use x="24.9" y="16.815" fill="#c9c015" xlink:href="#l"/>
  <use x="25.67" y="16.777" fill="#c9c015" xlink:href="#m"/>
  <use x="26.961" y="16.74" fill="#c9c015" xlink:href="#n"/>
  <use x="28.318" y="16.733" fill="#c9c015" xlink:href="#o"/>
  <use x="29.81" y="16.757" fill="#c9c015" xlink:href="#p"/>
  <use x="32.049" y="16.884" fill="#c9c015" xlink:href="#q"/>
  <use x="32.825" y="16.939" fill="#c9c015" xlink:href="#r"/>
  <use x="34.681" y="17.132" fill="#c9c015" xlink:href="#s"/>
  <path fill="#fff" d="M43.836 17.613c-.266-.273-.336-1.11-.336-1.113l-1-1a1.229 1.229 0 00-.809-.617c.36.144.75.219 1.141.215-.117-.16-.246-.325-.43-.41a.689.689 0 00-.582-.012c.41-.242.844-.461 1.29-.649a1.017 1.017 0 00-.91-.129.917.917 0 00-.598.66c-.043-.152.007-.316.062-.464.066-.188.137-.38.203-.567a.935.935 0 00-.543.453.858.858 0 00-.05.68c-.196-.004-.364-.183-.555-.152-.133.023-.223.133-.297.234-.113.153-.227.313-.25.496l1.117-.234a.835.835 0 00-.617.562c-.086.27-.035.57.105.82.2-.425.391-.847.586-1.273-.09.407.117.852.492 1.063l-.125-.801c-.015-.117-.039-.238-.12-.328.3.34.597.683.894 1.023.457.524.91 1.078 1.117 1.72.098.05.188.12.277.21l.102-.031c0-.012 0-.035-.004-.063-.023-.16-.137-.265-.16-.293"/>
  <path fill="#fafafa" d="M43.836 17.613c.098.09.168.219.168.356l-.004.004-.102.03-.003-.003-.278-.207v-.004c-.183-.543-.527-1.008-.894-1.441l-1.137-1.278.055-.047c.144.172.125.387.172.57l.093.575.02.113-.102-.054c-.383-.215-.625-.68-.535-1.13l.145.048-.567 1.28-.074.173-.098-.164c-.156-.266-.226-.602-.125-.914a.965.965 0 01.7-.63l.042.227-1.117.242-.168.036.024-.172c.02-.157.09-.29.164-.403.078-.113.14-.215.262-.328.109-.125.355-.144.484-.078.137.059.238.117.316.117l-.12.172c-.2-.531.156-1.14.671-1.289l.23-.066-.081.218-.184.504c-.063.172-.121.332-.086.457l-.215.004a1.02 1.02 0 01.688-.734 1.11 1.11 0 01.98.164l.113.082-.132.066-1.29.621-.058-.109a.747.747 0 01.633.016c.195.097.324.273.441.433l.055.07h-.086c-.375 0-.75-.074-1.098-.21-.008-.032-.074.023-.031-.07l.07.019.13.05c.085.044.167.087.241.141.157.11.282.258.368.422l-.004-.004.992 1.008.004.004c.015.195.047.39.094.578.046.192.101.387.234.535m0 0c-.137-.148-.191-.343-.242-.531a4.22 4.22 0 01-.102-.582l.004.004-1.008-.992-.004-.004c-.086-.16-.207-.301-.355-.406a1.404 1.404 0 00-.238-.13l-.13-.046-.066-.02c.02-.097.043-.011.063-.027.344.125.71.184 1.074.172l-.035.07c-.121-.156-.246-.309-.418-.387a.631.631 0 00-.531 0l-.059-.113 1.285-.672-.015.149a.92.92 0 00-.817-.11.839.839 0 00-.531.59l-.098.457-.12-.45c-.063-.23.03-.429.081-.589l.18-.512.148.153c-.406.129-.66.593-.507.98l.07.18-.192-.008c-.18-.008-.304-.098-.406-.133-.101-.039-.152-.031-.226.028-.137.144-.325.386-.348.57l-.148-.137 1.12-.226.047.226a.742.742 0 00-.535.473.942.942 0 00.086.75l-.172.008.606-1.266.308-.645-.167.692c-.09.375.105.8.445 1l-.082.055-.078-.579c-.035-.187-.028-.402-.137-.535l.055-.047 1.105 1.305c.363.438.703.91.879 1.457l.273.211h-.003L44 17.97h-.004a.495.495 0 00-.16-.356"/>
  <path fill="#fafafa" d="M43.738 27.926c.438.215.895.379 1.352.43.23.023.457.019.672-.02.21-.027.422-.047.613-.145.383-.16.71-.515.652-.828-.043-.34-.476-.668-.703-1.183-.234-.512-.215-1.082-.11-1.578.11-.504.294-.97.466-1.418.34-.86.582-1.852.05-2.536l.032.036c-.336-.297-.801-.524-1.188-.45-.11.016-.23.07-.445.063a.63.63 0 01-.504-.348c-.148-.363-.094-.594-.152-.82a1.34 1.34 0 00-.258-.594c-.106-.18-.274-.308-.496-.492-.496-.422-.442-1.102-.219-1.543-.102.5.023 1.066.426 1.258.195.101.492.222.695.465.176.25.293.527.344.812.05.274.047.578.105.688.059.09.082.097.414.02.649-.102 1.192.21 1.61.566l.015.015.02.024c.34.441.457 1.027.402 1.547-.047.523-.207 1.007-.383 1.468-.343.883-.718 1.828-.367 2.614.137.382.598.668.739 1.312.054.328-.083.652-.266.867a1.918 1.918 0 01-.676.492c-.246.106-.52.188-.789.184a2.797 2.797 0 01-.773-.145 3.601 3.601 0 01-1.278-.761"/>
</svg>